# Blender v2.90.1 OBJ File: ''
# www.blender.org
mtllib untitled.mtl
o LP_King_Sphere.001
v 0.041828 0.894893 -0.000511
v 0.025566 0.902829 -0.000312
v 0.018299 0.902829 0.017858
v 0.029938 0.894893 0.029216
v -0.025567 0.957657 0.000313
v -0.017857 0.957657 0.018299
v -0.017857 0.985072 0.018299
v -0.025567 0.985072 0.000313
v 0.025566 0.957657 -0.000312
v 0.017857 0.957657 -0.018299
v 0.017857 0.985072 -0.018299
v 0.025566 0.985072 -0.000312
v 0.000312 0.902829 0.025567
v 0.000511 0.894893 0.041828
v -0.018299 0.957657 -0.017857
v -0.018299 0.985072 -0.017857
v -0.017857 0.902829 0.018299
v -0.029216 0.894893 0.029939
v -0.025567 0.902829 0.000313
v -0.041828 0.894893 0.000511
v 0.018299 0.957657 0.017858
v 0.018299 0.985072 0.017858
v -0.018299 0.902829 -0.017857
v -0.029938 0.894893 -0.029216
v 0.000312 0.957657 0.025567
v 0.000312 0.985072 0.025567
v -0.000312 0.902829 -0.025566
v -0.000511 0.894893 -0.041828
v -0.000312 0.957657 -0.025566
v -0.000312 0.985072 -0.025566
v 0.017857 0.902829 -0.018299
v 0.029216 0.894893 -0.029938
v -0.076027 0.704835 0.079866
v -0.091828 0.696927 0.095495
v 0.001623 0.696927 0.132872
v 0.001354 0.704835 0.110816
v -0.108858 0.704835 0.003265
v -0.131478 0.696927 0.002984
v 0.001608 0.680126 0.131578
v 0.094176 0.680126 0.091903
v 0.094134 0.696927 0.093222
v -0.077908 0.704835 -0.074116
v -0.094100 0.696927 -0.090467
v -0.091903 0.680126 0.094177
v -0.001307 0.704835 -0.106947
v -0.001590 0.696927 -0.130117
v -0.131578 0.680126 0.001608
v -0.094176 0.680126 -0.091903
v 0.076074 0.704835 -0.075997
v 0.091862 0.696927 -0.092739
v -0.001608 0.680126 -0.131578
v 0.108905 0.704835 0.000604
v 0.131512 0.696927 -0.000229
v 0.091903 0.680126 -0.094176
v 0.077955 0.704835 0.077985
v 0.131578 0.680126 -0.001607
v 0.244720 0.054158 -0.002990
v 0.205785 0.069600 -0.002514
v 0.147290 0.069600 0.143734
v 0.175157 0.054158 0.170929
v -0.003076 0.132652 -0.251754
v -0.002139 0.211150 -0.175101
v 0.122303 0.211150 -0.125328
v 0.175842 0.132652 -0.180192
v 0.175101 0.211150 -0.002139
v 0.251754 0.132652 -0.003076
v 0.180192 0.132652 0.175842
v 0.125328 0.211150 0.122303
v 0.002139 0.211150 0.175101
v 0.003076 0.132652 0.251754
v -0.188572 -0.000000 0.193237
v -0.170929 0.054158 0.175157
v -0.244720 0.054158 0.002990
v -0.269980 -0.000000 0.003298
v 0.170929 0.054158 -0.175157
v 0.143734 0.069600 -0.147290
v 0.002514 0.069600 0.205785
v -0.175842 0.132652 0.180192
v -0.143734 0.069600 0.147290
v -0.251754 0.132652 0.003076
v -0.205785 0.069600 0.002514
v -0.147290 0.069600 -0.143734
v -0.180192 0.132652 -0.175842
v -0.002514 0.069600 -0.205785
v -0.175157 0.054158 -0.170929
v -0.193237 0.000000 -0.188572
v 0.003298 -0.000000 0.269980
v 0.002990 0.054158 0.244720
v -0.002990 0.054158 -0.244720
v -0.003298 0.000000 -0.269980
v -0.121044 0.223625 0.124039
v -0.093578 0.241345 0.095893
v -0.133976 0.241345 0.001637
v -0.173300 0.223625 0.002117
v -0.095892 0.241345 -0.093578
v -0.124038 0.223625 -0.121044
v 0.173300 0.223625 -0.002117
v 0.133976 0.241345 -0.001637
v 0.095892 0.241345 0.093578
v 0.124038 0.223625 0.121044
v 0.121044 0.223625 -0.124038
v 0.093578 0.241345 -0.095892
v 0.002117 0.223625 0.173300
v 0.001637 0.241345 0.133976
v -0.001637 0.241345 -0.133976
v -0.002117 0.223625 -0.173300
v 0.188572 0.000000 -0.193237
v -0.122303 0.211150 0.125328
v -0.175101 0.211150 0.002139
v -0.125328 0.211150 -0.122303
v 0.269980 0.000000 -0.003299
v 0.193237 -0.000000 0.188572
v -0.059909 0.632364 0.061391
v -0.085772 0.632364 0.001048
v -0.001048 0.632364 -0.085772
v -0.061391 0.632364 -0.059909
v -0.135384 0.655492 -0.132116
v -0.002311 0.655492 -0.189151
v 0.085772 0.632364 -0.001048
v 0.061391 0.632364 0.059909
v 0.059909 0.632364 -0.061391
v 0.001048 0.632364 0.085772
v 0.189151 0.655492 -0.002311
v 0.132116 0.655492 -0.135384
v 0.002311 0.655492 0.189151
v -0.132116 0.655492 0.135384
v 0.135384 0.655492 0.132116
v -0.189151 0.655492 0.002311
v 0.077161 0.746690 0.076630
v 0.107799 0.746690 0.000030
v 0.075299 0.746690 -0.075798
v -0.001300 0.746690 -0.106435
v -0.077128 0.746690 -0.073935
v -0.107766 0.746690 0.002664
v -0.075266 0.746690 0.078492
v 0.001333 0.746690 0.109129
v 0.101859 0.858337 0.099401
v 0.001739 0.858337 0.142312
v 0.142312 0.858337 -0.001739
v -0.099401 0.858337 0.101860
v -0.142312 0.858337 0.001739
v -0.101859 0.858337 -0.099400
v -0.001739 0.858337 -0.142312
v 0.099400 0.858337 -0.101859
v -0.001739 0.858337 -0.142312
v 0.099400 0.858337 -0.101859
v -0.142312 0.858337 0.001739
v -0.101859 0.858337 -0.099400
v 0.001739 0.858337 0.142312
v -0.099401 0.858337 0.101860
v 0.142312 0.858337 -0.001739
v 0.101859 0.858337 0.099401
v -0.000321 0.887510 -0.026304
v 0.018373 0.887510 -0.018827
v 0.000321 0.887510 0.026304
v -0.018373 0.887510 0.018827
v -0.018827 0.887510 -0.018372
v 0.026304 0.887510 -0.000321
v 0.018827 0.887510 0.018373
v -0.026304 0.887510 0.000322
v 0.000000 0.997529 0.000000
v -0.018299 0.930243 -0.017857
v -0.000312 0.930243 -0.025566
v 0.018299 0.930243 0.017858
v 0.000312 0.930243 0.025567
v 0.017857 0.930243 -0.018299
v -0.017857 0.930243 0.018299
v 0.025566 0.930243 -0.000312
v -0.025567 0.930243 0.000313
v 0.025566 0.957657 -0.000312
v 0.017857 0.957657 -0.018299
v -0.025567 0.957657 0.000313
v -0.017857 0.957657 0.018299
v 0.025566 0.930243 -0.000312
v 0.050341 0.915389 -0.010931
v 0.050341 0.972512 -0.010931
v 0.017857 0.930243 -0.018299
v 0.042632 0.972512 -0.028918
v 0.042632 0.915388 -0.028918
v -0.017857 0.930243 0.018299
v -0.025567 0.930243 0.000313
v -0.050341 0.915389 0.010931
v -0.042632 0.915388 0.028918
v -0.042632 0.972512 0.028918
v -0.050341 0.972512 0.010931
vn 0.4336 0.8842 0.1734
vn -0.9191 -0.0000 0.3939
vn 0.9191 0.0000 -0.3939
vn 0.1840 0.8842 0.4293
vn -0.9285 0.0000 -0.3714
vn -0.1734 0.8842 0.4336
vn -0.4293 0.8842 0.1840
vn 0.9285 -0.0000 0.3714
vn -0.4336 0.8842 -0.1734
vn -0.3714 -0.0000 0.9285
vn -0.1840 0.8842 -0.4293
vn 0.3714 -0.0000 -0.9285
vn 0.1734 0.8842 -0.4336
vn 0.3939 -0.0000 0.9191
vn 0.4293 0.8842 -0.1840
vn -0.3939 -0.0000 -0.9191
vn -0.1343 0.9323 0.3359
vn -0.3283 0.9341 0.1407
vn 0.3929 -0.0710 0.9168
vn -0.3257 0.9364 -0.1303
vn -0.3704 -0.0710 0.9261
vn -0.1365 0.9381 -0.3185
vn -0.9188 -0.0268 0.3938
vn -0.9279 0.0359 -0.3711
vn 0.1287 0.9381 -0.3217
vn -0.3927 0.0801 -0.9162
vn 0.3224 0.9364 -0.1382
vn 0.3702 0.0801 -0.9255
vn 0.3316 0.9341 0.1326
vn 0.9185 0.0359 -0.3937
vn 0.3662 0.9189 0.1465
vn 0.2757 0.6699 -0.6894
vn 0.6824 0.6699 -0.2925
vn 0.2925 0.6699 0.6824
vn 0.6894 0.6699 0.2757
vn -0.8441 0.3958 0.3618
vn 0.3626 0.9189 -0.1554
vn -0.3080 -0.5587 0.7701
vn -0.7623 -0.5587 0.3267
vn -0.3267 -0.5587 -0.7623
vn -0.7701 -0.5587 -0.3080
vn -0.8527 0.3958 -0.3410
vn -0.3410 0.3958 0.8527
vn 0.3080 -0.5587 -0.7701
vn 0.7623 -0.5587 -0.3267
vn 0.7701 -0.5587 0.3080
vn 0.3267 -0.5587 0.7623
vn -0.3618 0.3958 -0.8441
vn -0.1554 0.9189 -0.3626
vn -0.4029 0.8988 0.1727
vn -0.4070 0.8988 -0.1628
vn 0.4070 0.8988 0.1628
vn 0.4029 0.8988 -0.1727
vn 0.1465 0.9189 -0.3662
vn -0.3662 0.9189 -0.1465
vn -0.1628 0.8988 0.4070
vn -0.1727 0.8988 -0.4029
vn 0.1727 0.8988 0.4029
vn 0.1628 0.8988 -0.4070
vn 0.3410 0.3958 -0.8527
vn -0.3626 0.9189 0.1554
vn -0.3681 0.1323 0.9203
vn -0.9111 0.1323 0.3905
vn -0.9203 0.1323 -0.3681
vn -0.3905 0.1323 -0.9111
vn 0.8441 0.3958 -0.3618
vn -0.1465 0.9189 0.3662
vn 0.3681 0.1323 -0.9203
vn 0.9111 0.1323 -0.3905
vn 0.9203 0.1323 0.3681
vn 0.3905 0.1323 0.9111
vn 0.8527 0.3958 0.3410
vn -0.6894 0.6699 -0.2757
vn -0.2925 0.6699 -0.6824
vn -0.6824 0.6699 0.2925
vn -0.2757 0.6699 0.6894
vn 0.1554 0.9189 0.3626
vn -0.9132 0.1132 0.3914
vn -0.0000 -1.0000 -0.0000
vn 0.3618 0.3958 0.8441
vn -0.0927 -0.9719 -0.2163
vn -0.3914 0.1132 -0.9132
vn 0.9225 0.1132 0.3690
vn 0.3690 0.1132 -0.9225
vn 0.9132 0.1132 -0.3914
vn -0.9225 0.1132 -0.3690
vn -0.3690 0.1132 0.9225
vn 0.3914 0.1132 0.9132
vn 0.3862 0.9074 -0.1655
vn -0.0874 -0.9719 0.2185
vn 0.0927 -0.9719 0.2163
vn 0.0874 -0.9719 -0.2185
vn -0.2185 -0.9719 -0.0874
vn 0.2185 -0.9719 0.0874
vn -0.2163 -0.9719 0.0927
vn 0.2163 -0.9719 -0.0927
vn 0.9282 -0.0268 0.3712
vn -0.1655 0.9074 -0.3862
vn -0.1561 0.9074 0.3902
vn 0.1655 0.9074 0.3862
vn 0.1561 0.9074 -0.3902
vn -0.3902 0.9074 -0.1561
vn 0.3902 0.9074 0.1561
vn -0.3862 0.9074 0.1655
vn 0.9281 0.0296 0.3712
vn 0.9190 0.0189 -0.3939
vn 0.3713 0.0113 -0.9284
vn -0.3939 0.0113 -0.9191
vn -0.9283 0.0189 -0.3713
vn -0.9187 0.0296 0.3938
vn -0.3711 0.0372 0.9278
vn 0.3937 0.0372 0.9185
vn 0.1425 0.9323 0.3325
vn 0.3799 -0.2648 0.8863
vn 0.8938 -0.2706 0.3575
vn -0.8848 -0.2706 0.3792
vn -0.8917 -0.2789 -0.3566
vn -0.3776 -0.2846 -0.8811
vn 0.3560 -0.2846 -0.8901
vn 0.8827 -0.2789 -0.3783
vn -0.3581 -0.2648 0.8953
vn 0.0000 0.0000 1.0000
vn 0.0975 0.9649 -0.2438
vn -0.0975 0.9649 0.2438
vn -0.1035 0.9649 -0.2414
vn 0.2438 0.9649 0.0975
vn 0.4206 -0.8891 -0.1803
vn -0.1700 -0.8891 0.4249
vn -0.2414 0.9649 0.1035
vn -0.1803 -0.8891 -0.4206
vn -0.2438 0.9649 -0.0975
vn -0.4249 -0.8891 -0.1700
vn 0.2414 0.9649 -0.1035
vn 0.1700 -0.8891 -0.4249
vn -0.4206 -0.8891 0.1803
vn 0.4249 -0.8891 0.1700
vn 0.1803 -0.8891 0.4206
vn 0.1035 0.9649 0.2414
vn 0.4331 0.8845 0.1732
vn 0.1838 0.8845 0.4287
vn -0.1732 0.8845 0.4331
vn -0.4287 0.8845 0.1838
vn -0.4331 0.8845 -0.1732
vn -0.1838 0.8845 -0.4287
vn 0.1732 0.8845 -0.4331
vn 0.4287 0.8845 -0.1838
vn 0.4436 -0.8758 -0.1901
vn -0.4436 -0.8758 0.1901
vn 0.4436 0.8758 -0.1901
vn -0.4436 0.8758 0.1901
usemtl None
s 1
f 1//1 2//1 3//1 4//1
f 5//2 6//2 7//2 8//2
f 9//3 10//3 11//3 12//3
f 4//4 3//4 13//4 14//4
f 15//5 5//5 8//5 16//5
f 14//6 13//6 17//6 18//6
f 18//7 17//7 19//7 20//7
f 21//8 9//8 12//8 22//8
f 20//9 19//9 23//9 24//9
f 6//10 25//10 26//10 7//10
f 24//11 23//11 27//11 28//11
f 10//12 29//12 30//12 11//12
f 28//13 27//13 31//13 32//13
f 25//14 21//14 22//14 26//14
f 32//15 31//15 2//15 1//15
f 29//16 15//16 16//16 30//16
f 33//17 34//17 35//17 36//17
f 37//18 38//18 34//18 33//18
f 35//19 39//19 40//19 41//19
f 42//20 43//20 38//20 37//20
f 34//21 44//21 39//21 35//21
f 45//22 46//22 43//22 42//22
f 38//23 47//23 44//23 34//23
f 43//24 48//24 47//24 38//24
f 49//25 50//25 46//25 45//25
f 46//26 51//26 48//26 43//26
f 52//27 53//27 50//27 49//27
f 50//28 54//28 51//28 46//28
f 55//29 41//29 53//29 52//29
f 53//30 56//30 54//30 50//30
f 57//31 58//31 59//31 60//31
f 61//32 62//32 63//32 64//32
f 64//33 63//33 65//33 66//33
f 67//34 68//34 69//34 70//34
f 66//35 65//35 68//35 67//35
f 71//36 72//36 73//36 74//36
f 75//37 76//37 58//37 57//37
f 77//38 70//38 78//38 79//38
f 79//39 78//39 80//39 81//39
f 82//40 83//40 61//40 84//40
f 81//41 80//41 83//41 82//41
f 74//42 73//42 85//42 86//42
f 87//43 88//43 72//43 71//43
f 84//44 61//44 64//44 76//44
f 76//45 64//45 66//45 58//45
f 58//46 66//46 67//46 59//46
f 59//47 67//47 70//47 77//47
f 86//48 85//48 89//48 90//48
f 85//49 82//49 84//49 89//49
f 91//50 92//50 93//50 94//50
f 94//51 93//51 95//51 96//51
f 97//52 98//52 99//52 100//52
f 101//53 102//53 98//53 97//53
f 89//54 84//54 76//54 75//54
f 73//55 81//55 82//55 85//55
f 103//56 104//56 92//56 91//56
f 96//57 95//57 105//57 106//57
f 100//58 99//58 104//58 103//58
f 106//59 105//59 102//59 101//59
f 90//60 89//60 75//60 107//60
f 72//61 79//61 81//61 73//61
f 69//62 103//62 91//62 108//62
f 108//63 91//63 94//63 109//63
f 109//64 94//64 96//64 110//64
f 110//65 96//65 106//65 62//65
f 107//66 75//66 57//66 111//66
f 88//67 77//67 79//67 72//67
f 62//68 106//68 101//68 63//68
f 63//69 101//69 97//69 65//69
f 65//70 97//70 100//70 68//70
f 68//71 100//71 103//71 69//71
f 111//72 57//72 60//72 112//72
f 80//73 109//73 110//73 83//73
f 83//74 110//74 62//74 61//74
f 78//75 108//75 109//75 80//75
f 70//76 69//76 108//76 78//76
f 60//77 59//77 77//77 88//77
f 93//78 92//78 113//78 114//78
f 90//79 107//79 111//79 112//79 87//79 71//79 74//79 86//79
f 112//80 60//80 88//80 87//80
f 115//81 116//81 117//81 118//81
f 105//82 95//82 116//82 115//82
f 99//83 98//83 119//83 120//83
f 102//84 105//84 115//84 121//84
f 98//85 102//85 121//85 119//85
f 95//86 93//86 114//86 116//86
f 92//87 104//87 122//87 113//87
f 104//88 99//88 120//88 122//88
f 123//89 124//89 54//89 56//89
f 113//90 122//90 125//90 126//90
f 122//91 120//91 127//91 125//91
f 121//92 115//92 118//92 124//92
f 116//93 114//93 128//93 117//93
f 120//94 119//94 123//94 127//94
f 114//95 113//95 126//95 128//95
f 119//96 121//96 124//96 123//96
f 41//97 40//97 56//97 53//97
f 118//98 117//98 48//98 51//98
f 126//99 125//99 39//99 44//99
f 125//100 127//100 40//100 39//100
f 124//101 118//101 51//101 54//101
f 117//102 128//102 47//102 48//102
f 127//103 123//103 56//103 40//103
f 128//104 126//104 44//104 47//104
f 129//105 55//105 52//105 130//105
f 130//106 52//106 49//106 131//106
f 131//107 49//107 45//107 132//107
f 132//108 45//108 42//108 133//108
f 133//109 42//109 37//109 134//109
f 134//110 37//110 33//110 135//110
f 135//111 33//111 36//111 136//111
f 136//112 36//112 55//112 129//112
f 36//113 35//113 41//113 55//113
f 129//114 137//114 138//114 136//114
f 130//115 139//115 137//115 129//115
f 135//116 140//116 141//116 134//116
f 134//117 141//117 142//117 133//117
f 133//118 142//118 143//118 132//118
f 132//119 143//119 144//119 131//119
f 131//120 144//120 139//120 130//120
f 136//121 138//121 140//121 135//121
f 144//122 143//122 145//122 146//122
f 142//122 141//122 147//122 148//122
f 140//122 138//122 149//122 150//122
f 139//122 144//122 146//122 151//122
f 143//122 142//122 148//122 145//122
f 141//122 140//122 150//122 147//122
f 138//122 137//122 152//122 149//122
f 137//122 139//122 151//122 152//122
f 153//123 154//123 146//123 145//123
f 155//124 156//124 150//124 149//124
f 157//125 153//125 145//125 148//125
f 158//126 159//126 152//126 151//126
f 158//127 154//127 32//127 1//127
f 156//128 155//128 14//128 18//128
f 156//129 160//129 147//129 150//129
f 153//130 157//130 24//130 28//130
f 160//131 157//131 148//131 147//131
f 157//132 160//132 20//132 24//132
f 154//133 158//133 151//133 146//133
f 154//134 153//134 28//134 32//134
f 160//135 156//135 18//135 20//135
f 159//136 158//136 1//136 4//136
f 155//137 159//137 4//137 14//137
f 159//138 155//138 149//138 152//138
f 12//139 161//139 22//139
f 22//140 161//140 26//140
f 26//141 161//141 7//141
f 7//142 161//142 8//142
f 8//143 161//143 16//143
f 16//144 161//144 30//144
f 30//145 161//145 11//145
f 11//146 161//146 12//146
f 27//16 23//16 162//16 163//16
f 163//16 162//16 15//16 29//16
f 13//14 3//14 164//14 165//14
f 165//14 164//14 21//14 25//14
f 31//12 27//12 163//12 166//12
f 166//12 163//12 29//12 10//12
f 17//10 13//10 165//10 167//10
f 167//10 165//10 25//10 6//10
f 3//8 2//8 168//8 164//8
f 164//8 168//8 9//8 21//8
f 23//5 19//5 169//5 162//5
f 162//5 169//5 5//5 15//5
f 2//3 31//3 166//3 168//3
f 10//122 9//122 170//122 171//122
f 19//2 17//2 167//2 169//2
f 6//122 5//122 172//122 173//122
f 170//14 174//14 175//14 176//14
f 177//16 171//16 178//16 179//16
f 166//122 10//122 171//122 177//122
f 167//122 6//122 173//122 180//122
f 9//122 168//122 174//122 170//122
f 5//122 169//122 181//122 172//122
f 169//122 167//122 180//122 181//122
f 168//122 166//122 177//122 174//122
f 175//3 179//3 178//3 176//3
f 182//2 183//2 184//2 185//2
f 181//147 180//147 183//147 182//147
f 174//148 177//148 179//148 175//148
f 180//14 173//14 184//14 183//14
f 172//16 181//16 182//16 185//16
f 173//149 172//149 185//149 184//149
f 171//150 170//150 176//150 178//150
